<svg xmlns="http://www.w3.org/2000/svg" version="1.0" viewBox="449 448 1097 1096"><path d="M941.2 610.6c-10.5 2.8-20.6 9.7-32 21.9l-7.9 8.6-7.4-1.5c-27.1-5.5-63.6-4.6-95.9 2.5-30.1 6.6-68.3 20.4-97.9 35.4-18.6 9.5-47.1 26.4-58.1 34.6-9.7 7.2-22.7 19.9-28.7 28-7.4 10-13.6 24.7-16.5 39.1-1.6 8-1.5 36.6.1 47.3 3.8 24.9 12.8 48 25 64.1 7.3 9.8 12.3 14.6 22.6 22 18.8 13.5 38.9 18.5 80 19.9 33.7 1.2 44.8 5.2 51.6 18.7 4.3 8.4 6.4 17.6 8.8 38.3 3.5 29.8 4.2 34.5 6.7 46.5 4.8 22.8 12.2 43.6 27.4 77 5.6 12.4 12 27.2 14.2 32.9 3.6 9.4 8.8 29.8 12.3 47.6 2.4 12.6 3.8 40.6 3.2 61.4-.7 21.6-2.1 30.2-6.6 39.7-2.9 6.2-2.9 6.2-13.3 11.5-16.5 8.4-26 19.8-30.9 36.7-2.2 7.6-2.5 16.6-.6 20.1.6 1.3 2.8 3.2 4.7 4.3 3.3 1.8 6.1 1.9 64.5 1.5 58.6-.3 61.3-.4 68.7-2.4 14.3-4 25-11.2 32-21.7 2.3-3.3 5.8-8.1 7.9-10.6 2-2.5 5.1-7.4 6.9-10.9 3.6-7.3 16.9-40.7 19.6-49.4 1-3.1 2.3-5.7 2.9-5.7.7 0 5 2.3 9.6 5.1 10.2 6.2 23.7 13 38.4 19.4 6.1 2.7 11.4 5.2 11.9 5.6.9.8.5.9-10.4 2.8-3.6.7-10.2 3-14.7 5.2-7.3 3.5-9.3 5.1-17 13.8-8.9 10-13.7 17.8-14.8 24.1-.3 1.9-.8 4.8-1.2 6.5-1.5 7.2.9 14.2 6 16.9 3 1.6 11.6 1.7 118.7 1.3 120.1-.4 119.4-.4 141.5-4.8 40.6-8.2 73.9-30 93.2-61.2 14.2-23 25.4-59.8 30.5-99.7 1.9-15.4 1.6-55.1-.6-72-8.6-67.2-34.5-122.7-77.9-166.9-23.6-24-49.4-42.8-76.7-55.9-26.7-12.8-45.5-19.5-89-31.7-40.6-11.5-60.3-18.9-74.4-27.9-6.8-4.3-23.2-19.9-28.3-26.9-1.9-2.6-5.5-8.5-8-13-4.3-8-6.3-12.2-21.9-46.5-13.5-29.6-17.9-36.9-33.6-56.6-2.7-3.3-4.8-6.7-4.8-7.5 0-.9 1.5-4 3.4-7.1 5.6-9 7.8-17 8.4-29.7.4-9.5.1-12.2-1.8-18.5-5.4-17.9-16-28.5-32.2-32.3-7.7-1.8-10.8-1.8-17.6.1m16.1 18.5c4.8 1.3 10.2 6.1 12.9 11.3 4.9 9.4 4 28.5-1.9 40.3-4.4 9.1-9.2 14.5-17.6 20.3-10.1 6.8-12.1 12.7-6.2 18.6 1.8 1.8 3.5 2.4 6.7 2.4 4.5 0 7.2-1.3 12.4-6.2l3.1-2.9 3.5 4.3c8.6 10.9 10.7 13.7 14.5 19.3 6.1 9.1 14.3 26.3 26.1 54.5 9 21.9 23.7 44.5 37.4 57.6 22.3 21.5 40.8 29.8 106.8 47.9 51.1 14 87.8 30.5 118.5 53.4 24.6 18.3 47.2 43 64.6 70.7 28.2 44.8 43.3 107 40 164.9-1.5 26.5-5.7 47.6-14.8 74.4-8.7 26-16 38.4-32.2 54.8-18.4 18.7-50.5 31.6-85.5 34.3-6.7.5-58.6 1-115.3 1H1027v-2.3c0-4.2 5.9-14.4 11-19 5.5-4.9 11.2-7.9 19.8-10.4 4.6-1.3 11.5-1.6 35.2-1.7 39-.3 37.3-.1 40.9-3.2 6.4-5.4 2.6-14.4-6.7-16-14.6-2.5-41.4-10.7-60.1-18.4-21.3-8.8-51.9-25.2-54.5-29.2-.8-1.3-.3-4.4 2.3-13 5.7-19.3 12.3-47 12.4-52.6.2-4.7-.1-5.6-2.6-7.8-2-1.7-4-2.4-6.8-2.4-5.3 0-8.2 3.2-9.8 10.7-3.5 16-11.4 46.8-14 54.8-5.6 17.1-27.1 73.5-30.8 80.8-1.3 2.7-6.1 8.7-10.5 13.3-6.4 6.7-9.8 9.3-15.7 12.2l-7.6 3.7-24.7.3c-28.3.4-26.8 1-22.4-8.4 3.1-6.6 7.6-11.7 15-16.7 8.5-5.7 21.2-17.3 22.5-20.5 3.2-7.7 4.3-17.4 4.8-41 .6-25.6-.2-34.8-3.7-45-2.4-6.9-5.5-10.6-24-29.7-29.6-30.4-42.7-48.8-60.6-84.5-18.8-37.9-27.7-69.8-31.9-115.5-2.3-25.1-5.7-37.2-13.5-49.4-2.1-3.2-3.6-6.2-3.3-6.5.4-.3 3.9-.6 7.9-.6 27.4 0 63.3-7.5 83.3-17.4 28.9-14.3 51.1-40.5 62.1-73.5 3.9-11.5 4-17.3.4-20.6-3.7-3.4-9.6-3.4-12.7-.1-1.2 1.3-3.7 7.3-5.6 13.2-6.3 20.1-15.2 34.5-29.9 48.6-16 15.3-34.2 23-65.7 27.9-16.7 2.6-73.3 4.2-100.5 2.8-43.6-2.1-56.3-4.8-71.2-14.7-2.1-1.4-3.7-2.7-3.5-2.9s4.9-.7 10.5-1.3c24.7-2.3 39.8-9.5 48.4-22.9 3.4-5.5 3.5-6.5.3-9.6-4.1-4.2-7.9-3.4-18.6 3.7-13 8.5-17.7 10-32.6 10.6-10.4.4-13.2.1-19.2-1.7-7.6-2.3-8.7-3.4-13.5-12.9-8.3-16.5-13.1-41.9-12.4-65.6.6-17.2 2.2-23.7 9-36.9 4.6-8.8 14.1-19.5 25.2-28.5 15.3-12.3 62.3-38.4 86.6-48.1 31.5-12.5 37.2-14.5 47.5-17.1 28.9-7.3 46.8-10 67-10 17.5 0 43.5 2.7 43.5 4.5 0 .1-.7 1.9-1.6 4-3.9 9.5 5.2 16.6 12.5 9.7 1.7-1.5 5.6-7.2 8.7-12.7 6.3-11.1 11.7-18.7 16-22.6 9.6-8.6 18.3-11.4 27.7-8.8m-88.1 556.6c3.5 4.3 11.6 13.2 17.9 19.8 15 15.8 15.7 16.8 16.9 25.7 1.2 9.5 1.2 42.7 0 54.4-1.6 15.2-2 15.9-12.7 21.8-10.1 5.6-17.8 12.2-22.3 19.3-2.9 4.6-7.4 15.4-8.5 20.5l-.5 2.8h-44l.6-2.8c1.2-5.1 6.7-14.2 11-18.2 2.3-2.1 7.9-5.8 12.4-8 21.5-10.8 27.3-25.1 28.7-70.9.6-18.2-.3-29.9-3.9-52.6-3-19-3.1-19.5-2.6-19.5.3 0 3.4 3.5 7 7.7"/><path d="M832.5 724.5c-7.7 6-13.8 7.9-25 8-8.3 0-9.7-.3-17.5-3.8-4.7-2-9.7-3.7-11.1-3.7-3.4 0-6.8 3.8-7.6 8.4-.5 3.2-.2 4 3.1 7 10 9.5 30.3 13.9 47.1 10.2 11.8-2.5 25.1-10.2 27.9-16.1 3-6.2-1.9-14.5-8.4-14.5-1.7 0-4.9 1.7-8.5 4.5m-179.9 43.1c-4.7 1.7-12.6 7.6-15.6 11.6-2.7 3.6-5 10.1-5 14 0 1.7 1 3.9 2.5 5.3 5.5 5.6 17.5.8 17.5-6.9 0-2.1 4-4.5 9.7-6 10.3-2.6 12.7-14.4 3.8-18.2-4.2-1.7-7.8-1.7-12.9.2"/></svg>