<svg xmlns="http://www.w3.org/2000/svg" version="1.0" viewBox="501 164 1002 328"><path d="M642.4 234.9c-1.8 1.1-3.8 2.8-4.5 3.8-1.2 1.6-3 1.8-14.4 1.8-11.6.1-13.9.4-21.5 2.9-18.8 6.3-35.6 17.1-40 25.5-5.3 10.5-2.4 28.2 6.2 37 5.2 5.3 9.9 7.1 19.6 7.7 15.5 1 17.4 2.4 18.7 14.4 1.2 10.8 3.3 18.3 8.5 30.4 9.4 22 10.8 44.1 3.1 48.1-6.1 3.1-10.8 11.8-8.1 15 1 1.2 4.3 1.5 16.4 1.5 8.3 0 16.8-.5 18.9-1.1 4.5-1.2 10.3-8.5 13.8-17.4 1.3-3.3 2.4-6.1 2.5-6.3s3.3 1.2 7 3.1l6.9 3.5-3.6 1.5c-8 3.3-13.3 14.8-7.4 16.3 1.3.3 16.3.4 33.2.2 28.9-.4 31.1-.6 36.4-2.6 12.1-4.8 18-11.2 22.3-24.2 6.4-19.5 3.8-44.1-6.7-62-4.2-7.3-16.8-19.6-24.7-24.2-3.5-2-12.2-5.6-19.4-7.9-29.4-9.2-30-9.7-38.2-26.7-3.1-6.5-7-13.6-8.6-15.8-2.9-4-2.9-4.3-1.4-7.2 4.4-8.4-1.1-19.2-9.6-19.2-1.3 0-3.7.9-5.4 1.9m8.6 4.1c4.3 2.3 3.1 12.1-2 16.4-4.6 3.8-3.4 8.5 1.3 5.3 2-1.3 2.3-1.2 4.8 2.3 1.5 2 4.6 8.1 7 13.5 4.9 11 10.8 18.4 17.3 21.7 2.2 1.2 10.6 4.1 18.6 6.5 26.7 8.1 40.1 17.9 49.4 35.9 6.4 12.3 9.1 31.8 6.3 44.9-3.4 16-8.4 23.8-18.1 28.5-6.6 3.2-14.8 3.9-42.8 4-26.8 0-27 0-22.9-5.1 1.7-2.2 2.8-2.4 11.3-2.7 11.3-.3 13.8-.8 13.8-2.7 0-1.7-2.3-3-6.8-3.8-7.6-1.5-26.2-10.4-24.7-11.9 1.1-1 4.5-16 3.9-16.9-.9-1.6-4.2-1-4.8.8-.2 1-1.2 4.8-2.1 8.5-2.2 8.9-9 26.5-11.2 29.1-1 1.1-3.2 2.6-5 3.3-4.2 1.8-13.3 1.9-13.3.1 0-.6 2.3-3.2 5.1-5.7 5-4.5 5.1-4.7 5.6-11.2 1-12.3.1-15-8.3-23.9-12.3-13.3-18.9-27.7-21.4-46.9-.7-5.2-1.8-10.7-2.6-12.1l-1.3-2.6 8.2-1c9.8-1.2 16.2-4.1 21.8-9.6 6.7-6.7 10.7-17.7 6.7-18.5-1.3-.2-2.5 1.3-4.7 6-4.5 9.6-8.7 13.4-17.6 15.9-6.9 1.9-38.4 2-44 0l-4-1.4 5.3-1.7c5.5-1.8 9.2-4.4 9.2-6.6 0-2.4-2-2.6-5.3-.6-4.2 2.6-9.6 3.6-12.9 2.3-5.2-2-8.3-20.5-4.5-27.6 3.3-6.4 13.6-13.6 28.4-19.8 11.9-5 20.3-6.8 30.3-6.5 7.7.3 8.5.5 8.5 2.3 0 3.8 3.2 2.8 5.9-1.9 3.9-6.8 7.5-8.8 11.6-6.6m-15.4 147.2c2.8 5.4 1.5 19.4-2 20.8-2.8 1-6.2 4.8-7.5 8.2-1 2.5-1.5 2.8-6.1 2.8-2.7 0-5-.4-5-.9 0-1.5 3.3-5.1 5.9-6.4 4.8-2.4 6.3-5.9 6.8-15.3.3-4.9.1-11.3-.5-14.2l-1-5.4 4 3.9c2.2 2.1 4.6 5 5.4 6.5"/><path d="M616.5 262.8c-2.4 1.3-3.6 1.3-7.4.3-4.6-1.2-6.6-.5-5.6 2.1 2.3 6 19.5 4 19.5-2.2 0-2.4-2.2-2.5-6.5-.2m-45.6 12.1c-1.7 1.7-2.9 3.7-2.6 4.4.6 1.8 3.9 2.1 5.1.5.6-.8 1.9-1.7 2.9-2.1 2.3-.9 1.9-5-.6-5.5-.9-.2-3.1 1-4.8 2.7M808 330.5V420h19v-57.5l28.8 28.8 28.7 28.7h24.6l-30.9-30.5-30.9-30.6 14.6-14.2c8-7.8 20-19.4 26.5-25.7 13.7-13.1 17.6-17 17.6-17.6 0-.2-5.1-.4-11.2-.4l-11.3.1-28 27.4-28 27.4-.3-57.5-.2-57.4h-19zm262 0V420h18V241h-18zm-107.2-31C935.1 305 915 330.9 915 361c0 26.6 15.3 49.3 39.5 58.6 6.3 2.4 8.3 2.7 19.5 2.7 10.3 0 13.5-.4 18.4-2.1 8.2-3 14.8-7.5 20.1-13.6l4.5-5.1V420h18V301h-18v19.3l-2.9-4c-5.9-8.2-16.9-14.4-29.7-16.8-9-1.8-12.7-1.8-21.6 0m30.7 20c3 1.3 7.1 3.6 9 5.1 4.7 3.6 11 13.2 12.9 19.8 2.1 7 2.1 25.3.1 31.9-5.6 18.5-19.2 28.7-38.2 28.7-20.7 0-36.3-12-41.3-31.6-4.4-17-.6-32.7 10.6-44.4 6.2-6.5 13.4-10.6 21.1-12s19.6-.3 25.8 2.5m175-20c-10.3 2.3-16.5 5.6-23.3 12.6l-3.2 3.3V301h-19v119h18.9l.3-41.3c.3-37.4.5-41.5 2.1-44.8 3.1-6.2 8.2-11.3 14.3-14.4 5.3-2.7 6.9-2.9 15.4-2.9 7.9 0 10.3.4 14.2 2.3 5.7 2.7 11.2 8.6 14.2 15 2 4.4 2.1 6.2 2.4 45.3l.3 40.8h17.8l.3-40.3c.3-39.5.3-40.3 2.6-45.2 2.9-6.3 8.3-11.9 14.7-15.3 4.4-2.4 6.1-2.7 15-2.7 8.3 0 10.7.4 14 2.2 6.5 3.4 12 9.5 14.4 15.7 2 5.4 2.1 7.4 2.1 45.6v40h19v-40.5c0-25.9-.4-42.3-1.1-45.7-2.8-13.3-11.4-24.5-23.2-30.3-17.3-8.5-36.6-6.3-51.8 5.7-2.7 2.1-6.2 5.7-7.8 7.8l-2.9 4-2.7-4c-6.2-9-15.7-15.1-27.4-17.6-8-1.7-11.7-1.7-19.6.1m209.4-.1c-11 1.9-22.4 8.2-30.6 17-12.2 12.7-17.2 25.8-17.3 44.6 0 18.7 5.3 32.3 17.5 44.5 10.7 10.8 21.8 16 37 17.1 16.3 1.2 30.5-3.8 40.9-14.3l5.6-5.7V420h19V301h-19v17.8l-5.7-5.6c-7.4-7.4-16.3-12-26.1-13.8-9.1-1.6-12.5-1.6-21.3 0m29.5 19.7c7 2.6 16.2 11.2 19.4 18.2 8.4 18.1 6.5 40.3-4.7 54.5-3.6 4.5-11.6 9.9-17.6 11.7-6.4 1.9-19.6 1.9-25.9 0-10.1-3.1-19-10.3-24.1-19.7-7.7-14.1-7.4-34.1.8-48.1 5.2-8.8 16.9-17 27.2-18.8 6.5-1.2 18.7-.2 24.9 2.2"/></svg>